<svg width="13" height="13" viewBox="0 0 13 13" fill="none" xmlns="http://www.w3.org/2000/svg">
<path d="M6.5 0C7.36195 0 8.1886 0.34241 8.7981 0.951903C9.40759 1.5614 9.75 2.38805 9.75 3.25C9.75 4.11195 9.40759 4.9386 8.7981 5.5481C8.1886 6.15759 7.36195 6.5 6.5 6.5C5.63805 6.5 4.8114 6.15759 4.2019 5.5481C3.59241 4.9386 3.25 4.11195 3.25 3.25C3.25 2.38805 3.59241 1.5614 4.2019 0.951903C4.8114 0.34241 5.63805 0 6.5 0ZM6.5 1.625C6.06902 1.625 5.6557 1.7962 5.35095 2.10095C5.04621 2.4057 4.875 2.81902 4.875 3.25C4.875 3.68098 5.04621 4.0943 5.35095 4.39905C5.6557 4.70379 6.06902 4.875 6.5 4.875C6.93098 4.875 7.3443 4.70379 7.64905 4.39905C7.95379 4.0943 8.125 3.68098 8.125 3.25C8.125 2.81902 7.95379 2.4057 7.64905 2.10095C7.3443 1.7962 6.93098 1.625 6.5 1.625ZM6.5 7.3125C8.66938 7.3125 13 8.39312 13 10.5625V13H0V10.5625C0 8.39312 4.33063 7.3125 6.5 7.3125ZM6.5 8.85625C4.08687 8.85625 1.54375 10.0425 1.54375 10.5625V11.4563H11.4563V10.5625C11.4563 10.0425 8.91313 8.85625 6.5 8.85625Z" fill="#426E55"/>
</svg>
